<svg width="22" height="24" viewBox="0 0 22 24" fill="none" xmlns="http://www.w3.org/2000/svg">
<path d="M18.8065 4.18281C16.7484 2.12474 13.9452 0.989258 11.071 0.989258C5.03871 0.989258 0.106452 5.88603 0.106452 11.9183C0.106452 13.8699 0.603226 15.7151 1.56129 17.4183L0 23.0602L5.85484 21.5699C7.45161 22.4215 9.26129 22.9183 11.1065 22.9183C17.1032 22.8828 22 17.986 22 11.9183C22 9.00862 20.8645 6.27636 18.8065 4.18281ZM11.0355 21.0376C9.43871 21.0376 7.77097 20.5764 6.3871 19.7247L6.03226 19.5118L2.59032 20.3989L3.54839 17.0635L3.33548 16.7086C2.44839 15.2538 1.95161 13.5506 1.95161 11.8473C1.95161 6.8441 5.99677 2.79893 11.0355 2.79893C13.4484 2.79893 15.7194 3.757 17.4226 5.46023C19.1258 7.16345 20.0839 9.46991 20.0839 11.9183C20.1548 16.9925 16.0387 21.0376 11.0355 21.0376ZM16.0387 14.2247C15.7548 14.0828 14.4419 13.4086 14.1226 13.3731C13.8742 13.2667 13.6613 13.2312 13.5194 13.5151C13.3774 13.7989 12.8097 14.3667 12.6677 14.5796C12.5258 14.7215 12.3839 14.7925 12.0645 14.6151C11.7806 14.4731 10.929 14.2247 9.86452 13.2312C9.04839 12.5215 8.48065 11.6344 8.37419 11.3151C8.23226 11.0312 8.33871 10.9247 8.51613 10.7473C8.65806 10.6054 8.8 10.4635 8.90645 10.2506C9.04839 10.1086 9.04839 9.96668 9.19032 9.78926C9.33226 9.64733 9.22581 9.43442 9.15484 9.29249C9.04839 9.15055 8.55161 7.80216 8.30323 7.23442C8.09032 6.66668 7.84194 6.77313 7.7 6.77313C7.55806 6.77313 7.34516 6.77313 7.20323 6.77313C7.06129 6.77313 6.70645 6.80862 6.49355 7.12797C6.24516 7.41184 5.53548 8.08603 5.53548 9.43442C5.53548 10.7828 6.49355 12.0247 6.67097 12.2731C6.8129 12.4151 8.62258 15.2183 11.3194 16.4247C11.9581 16.7086 12.4548 16.886 12.8806 17.028C13.5194 17.2409 14.1226 17.1699 14.5839 17.1344C15.1161 17.0989 16.1806 16.4957 16.429 15.8215C16.6419 15.2183 16.6419 14.6151 16.571 14.5086C16.5 14.4376 16.2871 14.3312 16.0387 14.2247Z" fill="#353535"/>
</svg>
