<svg width="22" height="23" viewBox="0 0 22 23" fill="none" xmlns="http://www.w3.org/2000/svg">
<path d="M21.9901 6.46557C21.9545 5.32877 21.7414 4.51169 21.4927 3.76566C21.244 3.01964 20.8532 2.41571 20.2493 1.81178C19.6454 1.20785 19.0415 0.852603 18.331 0.568402C17.6205 0.284201 16.8389 0.106575 15.6311 0.0710503C14.3877 1.5881e-08 14.0324 0 11.0128 0C7.99315 0 7.67343 7.94048e-09 6.46557 0.0355251C5.25772 0.0710503 4.51169 0.284201 3.76566 0.532877C3.01964 0.781553 2.41571 1.20785 1.81178 1.81178C1.20785 2.41571 0.817078 3.01964 0.568402 3.76566C0.284201 4.47617 0.106575 5.25772 0.0710503 6.46557C0.0355251 7.67343 0 7.99315 0 11.0128C0 14.0324 7.94048e-09 14.3521 0.0355251 15.56C0.0710503 16.7679 0.284201 17.5139 0.532877 18.2599C0.781553 19.0059 1.17233 19.6099 1.77626 20.2138C2.38018 20.8177 3.01964 21.2085 3.73014 21.4572C4.44064 21.7059 5.22219 21.919 6.43005 21.9545C7.6379 22.0256 7.95763 22.0256 10.9773 22.0256C13.9969 22.0256 14.3166 22.0256 15.5245 21.9901C16.7323 21.9545 17.4784 21.7414 18.2244 21.4927C18.9704 21.244 19.5743 20.8532 20.1783 20.2493C20.7822 19.6454 21.173 19.0059 21.4216 18.2954C21.6703 17.5849 21.8835 16.8034 21.919 15.5955C21.9545 14.4587 21.9545 14.1035 21.9545 11.0838C21.9545 8.0642 22.0256 7.67343 21.9901 6.46557ZM20.0006 15.4534C19.9651 16.5192 19.752 17.0876 19.6099 17.5139C19.3967 18.0112 19.148 18.402 18.7573 18.7573C18.3665 19.148 18.0112 19.3612 17.5139 19.6099C17.1231 19.752 16.5547 19.9651 15.4534 20.0006C14.3166 20.0006 13.9614 20.0006 11.0483 20.0006C8.13525 20.0006 7.74448 20.0006 6.60767 19.9651C5.54192 19.9296 4.97352 19.7164 4.54722 19.5743C4.04986 19.3612 3.65909 19.1125 3.30384 18.7217C2.91306 18.331 2.69991 17.9757 2.45123 17.4784C2.30913 17.0876 2.09598 16.5192 2.06046 15.4179C2.06046 14.3166 2.06046 13.9614 2.06046 11.0128C2.06046 8.0642 2.06046 7.70895 2.09598 6.57215C2.13151 5.50639 2.34466 4.93799 2.48676 4.51169C2.69991 4.01434 2.94859 3.62356 3.30384 3.26831C3.69461 2.87754 4.04986 2.66438 4.54722 2.45123C4.93799 2.30913 5.50639 2.09598 6.60767 2.06046C7.74448 2.02493 8.09973 2.02493 11.0483 2.02493C13.9969 2.02493 14.3521 2.02493 15.489 2.06046C16.5547 2.09598 17.1231 2.30913 17.5494 2.45123C18.0468 2.66438 18.4375 2.91306 18.7928 3.26831C19.1836 3.65909 19.3967 4.01434 19.6454 4.51169C19.7875 4.90247 20.0006 5.47087 20.0362 6.57215C20.0717 7.70895 20.0717 8.0642 20.0717 11.0128C20.0717 13.9614 20.0362 14.3166 20.0006 15.4534Z" fill="#353535"/>
<path d="M11.0137 5.36414C7.85199 5.36414 5.36523 7.92194 5.36523 11.0126C5.36523 14.1744 7.92304 16.6611 11.0137 16.6611C14.1044 16.6611 16.6977 14.1744 16.6977 11.0126C16.6977 7.85089 14.1755 5.36414 11.0137 5.36414ZM11.0137 14.7072C8.95327 14.7072 7.31912 13.0376 7.31912 11.0126C7.31912 8.9877 8.9888 7.31802 11.0137 7.31802C13.0742 7.31802 14.7083 8.95217 14.7083 11.0126C14.7083 13.0731 13.0742 14.7072 11.0137 14.7072Z" fill="#353535"/>
<path d="M16.9453 6.43013C17.6712 6.43013 18.2597 5.84162 18.2597 5.1157C18.2597 4.38974 17.6712 3.80127 16.9453 3.80127C16.2193 3.80127 15.6309 4.38974 15.6309 5.1157C15.6309 5.84162 16.2193 6.43013 16.9453 6.43013Z" fill="#353535"/>
</svg>
