<svg width="22" height="22" viewBox="0 0 22 22" fill="none" xmlns="http://www.w3.org/2000/svg">
<path d="M20.5818 5.58927C19.0909 3.00745 16.5818 1.08018 13.6727 0.352908C12.7273 0.134726 11.8545 0.0256348 10.9818 0.0256348C10.0727 0.0256348 9.12727 0.134726 8.21818 0.389271C5.34545 1.11654 2.87273 3.00745 1.41818 5.62564C0.472727 7.29836 0 9.11654 0 11.0075V11.262C0.0363636 13.262 0.654545 15.2256 1.70909 16.9347C3.45455 19.6984 6.32727 21.5165 9.52727 21.8802C9.96364 21.9529 10.4364 21.9893 10.9818 21.9893C11.4182 21.9893 11.8909 21.9529 12.3273 21.9165C15.6 21.5165 18.4727 19.6984 20.2545 16.9347C21.3455 15.262 21.9273 13.2984 22 11.262V11.0075C22 9.18927 21.4909 7.29836 20.5818 5.58927ZM18 10.4984C17.8909 9.29836 17.6 8.13473 17.1273 7.04382H19.4545C19.9636 8.13473 20.2545 9.33473 20.3273 10.4984H18ZM1.63636 10.4984C1.70909 9.29836 2 8.13473 2.50909 7.04382H4.61818C4.14545 8.13473 3.89091 9.29836 3.78182 10.4984H1.63636ZM6.43636 7.04382H10.1455V10.4984H5.45455C5.56364 9.262 5.89091 8.09836 6.43636 7.04382ZM14.3273 5.40745H11.7818V2.38927C12.6182 3.04382 13.4545 4.062 14.3273 5.40745ZM10.1818 2.35291V5.40745H7.45455C8.36364 4.02563 9.27273 3.00745 10.1818 2.35291ZM10.1818 12.1347V15.5893H6.54545C5.96364 14.5347 5.6 13.3347 5.49091 12.1347H10.1818ZM10.1818 17.2256V19.7347C9.27273 19.1165 8.36364 18.2438 7.56364 17.2256H10.1818ZM11.8182 19.7347V17.1893H14.5818C13.8182 18.2438 12.8727 19.1165 11.8182 19.7347ZM11.8182 15.5893V12.1347H16.4C16.3273 13.3347 16.0364 14.4984 15.5273 15.5893H11.8182ZM11.8182 10.4984V7.04382H15.3455C15.8909 8.09836 16.2545 9.29836 16.3636 10.4984H11.8182ZM18.4727 5.40745H16.2545C15.4545 4.062 14.6545 2.97109 13.8545 2.13473C15.7091 2.71654 17.3455 3.88018 18.4727 5.40745ZM7.89091 2.17109C7.09091 3.00745 6.29091 4.09836 5.49091 5.37109H3.52727C4.61818 3.91654 6.14545 2.78927 7.89091 2.17109ZM1.67273 12.1347H3.81818C3.92727 13.3347 4.21818 14.4984 4.69091 15.5893H2.8C2.18182 14.4984 1.81818 13.3347 1.67273 12.1347ZM3.96364 17.2256H5.6C6.18182 18.1711 6.90909 19.0438 7.63636 19.7711C6.21818 19.2256 4.94545 18.3529 3.96364 17.2256ZM14.5818 19.662C15.3091 18.9711 15.9636 18.1347 16.4727 17.262C16.4727 17.262 16.4727 17.2256 16.5091 17.2256H18C17.0545 18.2802 15.8909 19.1165 14.5818 19.662ZM19.1636 15.5893H17.2727C17.7091 14.4984 17.9636 13.3347 18 12.1347H20.2545C20.1455 13.3347 19.7455 14.4984 19.1636 15.5893Z" fill="#353535"/>
</svg>
