<svg width="23" height="23" viewBox="0 0 23 23" fill="none" xmlns="http://www.w3.org/2000/svg">
<path d="M20.6159 5.63291C19.1225 3.04681 16.6093 1.11635 13.6954 0.387873C12.7483 0.16933 11.8742 0.0600586 11 0.0600586C10.0894 0.0600586 9.14238 0.16933 8.23179 0.424297C5.3543 1.15277 2.87748 3.04681 1.42053 5.66933C0.47351 7.34483 0 9.16602 0 11.0601V11.315C0.0364238 13.3183 0.655629 15.2852 1.71192 16.9971C3.46026 19.7654 6.33775 21.5865 9.54305 21.9508C9.98013 22.0236 10.4536 22.0601 11 22.0601C11.4371 22.0601 11.9106 22.0236 12.3477 21.9872C15.6258 21.5865 18.5033 19.7654 20.2881 16.9971C21.3808 15.3216 21.9636 13.3548 22.0364 11.315V11.0601C22.0364 9.23887 21.5265 7.34483 20.6159 5.63291ZM18.0298 10.5501C17.9205 9.34814 17.6291 8.18258 17.1556 7.08986H19.4868C19.9967 8.18258 20.2881 9.38456 20.3609 10.5501H18.0298ZM1.63907 10.5501C1.71192 9.34814 2.00331 8.18258 2.51324 7.08986H4.62583C4.15232 8.18258 3.89735 9.34814 3.78808 10.5501H1.63907ZM6.44702 7.08986H10.1623V10.5501H5.46358C5.57285 9.31171 5.90066 8.14615 6.44702 7.08986ZM14.351 5.45079H11.8013V2.42761C12.6391 3.08324 13.4768 4.10311 14.351 5.45079ZM10.1987 2.39118V5.45079H7.46689C8.37748 4.06668 9.28808 3.04681 10.1987 2.39118ZM10.1987 12.1892V15.6495H6.55629C5.97351 14.5932 5.60927 13.3912 5.5 12.1892H10.1987ZM10.1987 17.2885V19.8018C9.28808 19.1826 8.37748 18.3084 7.57616 17.2885H10.1987ZM11.8377 19.8018V17.2521H14.606C13.8411 18.3084 12.894 19.1826 11.8377 19.8018ZM11.8377 15.6495V12.1892H16.4272C16.3543 13.3912 16.0629 14.5567 15.553 15.6495H11.8377ZM11.8377 10.5501V7.08986H15.3709C15.9172 8.14615 16.2815 9.34814 16.3907 10.5501H11.8377ZM18.5033 5.45079H16.2815C15.4801 4.10311 14.6788 3.01039 13.8775 2.17264C15.7351 2.75542 17.3742 3.92099 18.5033 5.45079ZM7.90397 2.20907C7.10265 3.04681 6.30132 4.13953 5.5 5.41436H3.53311C4.62583 3.95741 6.15563 2.82827 7.90397 2.20907ZM1.6755 12.1892H3.8245C3.93377 13.3912 4.22517 14.5567 4.69867 15.6495H2.80464C2.18543 14.5567 1.82119 13.3912 1.6755 12.1892ZM3.9702 17.2885H5.60927C6.19205 18.2356 6.92053 19.1097 7.64901 19.8382C6.22848 19.2918 4.95364 18.4177 3.9702 17.2885ZM14.606 19.7289C15.3344 19.0369 15.9901 18.1991 16.5 17.325C16.5 17.325 16.5 17.2885 16.5364 17.2885H18.0298C17.0828 18.3448 15.9172 19.1826 14.606 19.7289ZM19.1954 15.6495H17.3013C17.7384 14.5567 17.9934 13.3912 18.0298 12.1892H20.2881C20.1788 13.3912 19.7781 14.5567 19.1954 15.6495Z" fill="#909090"/>
</svg>
