<svg width="15" height="17" viewBox="0 0 15 17" fill="none" xmlns="http://www.w3.org/2000/svg">
<path d="M7.5 0C3.36 0 0 3.03973 0 6.78311C0 9.62583 4.02 14.1291 6.39 16.5497C6.69 16.8593 7.08 17 7.5 17C7.92 17 8.31 16.8311 8.61 16.5497C10.98 14.1291 15 9.62583 15 6.78311C15 3.03973 11.64 0 7.5 0ZM7.62 15.7053C7.56 15.7616 7.47 15.7616 7.38 15.7053C4.47 12.7219 1.35 8.83775 1.35 6.78311C1.35 3.74338 4.11 1.26656 7.5 1.26656C10.89 1.26656 13.65 3.74338 13.65 6.78311C13.65 8.83775 10.53 12.7219 7.62 15.7053Z" fill="white"/>
<path d="M7.50047 3.91235C5.70047 3.91235 4.23047 5.29149 4.23047 6.98023C4.23047 8.66898 5.70047 10.0763 7.50047 10.0763C9.30047 10.0763 10.7705 8.69712 10.7705 7.00838C10.7705 5.31964 9.30047 3.91235 7.50047 3.91235ZM7.50047 8.8097C6.42047 8.8097 5.58047 7.99348 5.58047 7.00838C5.58047 6.02328 6.45047 5.20706 7.50047 5.20706C8.55047 5.20706 9.42047 6.02328 9.42047 7.00838C9.42047 7.99348 8.58047 8.8097 7.50047 8.8097Z" fill="white"/>
</svg>
