<svg width="22" height="17" viewBox="0 0 22 17" fill="none" xmlns="http://www.w3.org/2000/svg">
<path d="M19.7129 0.0601807H2.28713C1.05281 0.0601807 0 1.07668 0 2.34731V14.1097C0 15.344 1.0165 16.3968 2.28713 16.3968H19.7129C20.9472 16.3968 22 15.3803 22 14.1097V2.31101C22 1.07668 20.9472 0.0601807 19.7129 0.0601807ZM19.7129 1.69384C19.7492 1.69384 19.7855 1.69384 19.8218 1.69384L11 7.35721L2.17822 1.69384C2.21452 1.69384 2.25083 1.69384 2.28713 1.69384H19.7129ZM19.7129 14.6905H2.28713C1.92409 14.6905 1.63366 14.4001 1.63366 14.0371V3.2912L10.1287 8.73675C10.3828 8.91827 10.6733 8.99087 10.9637 8.99087C11.2541 8.99087 11.5446 8.91827 11.7987 8.73675L20.2937 3.2912V14.0734C20.3663 14.4364 20.0759 14.6905 19.7129 14.6905Z" fill="#353535"/>
</svg>
