<svg width="28" height="20" viewBox="0 0 28 20" fill="none" xmlns="http://www.w3.org/2000/svg">
<path d="M24.6411 0H2.85891C1.31601 0 0 1.24444 0 2.8V17.2C0 18.7111 1.27063 20 2.85891 20H24.6411C26.184 20 27.5 18.7556 27.5 17.2V2.75556C27.5 1.24444 26.184 0 24.6411 0ZM24.6411 2C24.6865 2 24.7318 2 24.7772 2L13.75 8.93333L2.72277 2C2.76815 2 2.81353 2 2.85891 2H24.6411ZM24.6411 17.9111H2.85891C2.40512 17.9111 2.04208 17.5556 2.04208 17.1111V3.95556L12.6609 10.6222C12.9785 10.8444 13.3416 10.9333 13.7046 10.9333C14.0677 10.9333 14.4307 10.8444 14.7484 10.6222L25.3672 3.95556V17.1556C25.4579 17.6 25.0949 17.9111 24.6411 17.9111Z" fill="#909090"/>
</svg>
