<svg width="22" height="22" viewBox="0 0 22 22" fill="none" xmlns="http://www.w3.org/2000/svg">
<path d="M21.9645 6.45806C21.929 5.32258 21.7161 4.50645 21.4677 3.76129C21.2194 3.01613 20.829 2.4129 20.2258 1.80968C19.6226 1.20645 19.0194 0.851613 18.3097 0.567742C17.6 0.283871 16.8194 0.106452 15.6129 0.0709678C14.371 1.58625e-08 14.0161 0 11 0C7.98387 0 7.66452 7.93126e-09 6.45807 0.0354839C5.25161 0.0709677 4.50645 0.283871 3.76129 0.532258C3.01613 0.780645 2.4129 1.20645 1.80968 1.80968C1.20645 2.4129 0.816129 3.01613 0.567742 3.76129C0.283871 4.47097 0.106452 5.25161 0.0709678 6.45806C0.0354839 7.66452 0 7.98387 0 11C0 14.0161 7.93126e-09 14.3355 0.0354839 15.5419C0.0709678 16.7484 0.283871 17.4935 0.532258 18.2387C0.780645 18.9839 1.17097 19.5871 1.77419 20.1903C2.37742 20.7935 3.01613 21.1839 3.72581 21.4323C4.43548 21.6806 5.21613 21.8935 6.42258 21.929C7.62903 22 7.94839 22 10.9645 22C13.9806 22 14.3 22 15.5065 21.9645C16.7129 21.929 17.4581 21.7161 18.2032 21.4677C18.9484 21.2194 19.5516 20.829 20.1548 20.2258C20.7581 19.6226 21.1484 18.9839 21.3968 18.2742C21.6452 17.5645 21.8581 16.7839 21.8935 15.5774C21.929 14.4419 21.929 14.0871 21.929 11.071C21.929 8.05484 22 7.66452 21.9645 6.45806ZM19.9774 15.4355C19.9419 16.5 19.729 17.0677 19.5871 17.4935C19.3742 17.9903 19.1258 18.3806 18.7355 18.7355C18.3452 19.1258 17.9903 19.3387 17.4935 19.5871C17.1032 19.729 16.5355 19.9419 15.4355 19.9774C14.3 19.9774 13.9452 19.9774 11.0355 19.9774C8.12581 19.9774 7.73548 19.9774 6.6 19.9419C5.53548 19.9065 4.96774 19.6935 4.54194 19.5516C4.04516 19.3387 3.65484 19.0903 3.3 18.7C2.90968 18.3097 2.69677 17.9548 2.44839 17.4581C2.30645 17.0677 2.09355 16.5 2.05806 15.4C2.05806 14.3 2.05806 13.9452 2.05806 11C2.05806 8.05484 2.05806 7.7 2.09355 6.56452C2.12903 5.5 2.34194 4.93226 2.48387 4.50645C2.69677 4.00968 2.94516 3.61935 3.3 3.26452C3.69032 2.87419 4.04516 2.66129 4.54194 2.44839C4.93226 2.30645 5.5 2.09355 6.6 2.05806C7.73548 2.02258 8.09032 2.02258 11.0355 2.02258C13.9806 2.02258 14.3355 2.02258 15.471 2.05806C16.5355 2.09355 17.1032 2.30645 17.529 2.44839C18.0258 2.66129 18.4161 2.90968 18.771 3.26452C19.1613 3.65484 19.3742 4.00968 19.6226 4.50645C19.7645 4.89677 19.9774 5.46452 20.0129 6.56452C20.0484 7.7 20.0484 8.05484 20.0484 11C20.0484 13.9452 20.0129 14.3 19.9774 15.4355Z" fill="#909090"/>
<path d="M11.0013 5.35791C7.84325 5.35791 5.35938 7.91275 5.35938 10.9998C5.35938 14.1579 7.91421 16.6418 11.0013 16.6418C14.0884 16.6418 16.6787 14.1579 16.6787 10.9998C16.6787 7.84178 14.1594 5.35791 11.0013 5.35791ZM11.0013 14.6902C8.94325 14.6902 7.31099 13.0224 7.31099 10.9998C7.31099 8.97727 8.97873 7.30952 11.0013 7.30952C13.0594 7.30952 14.6916 8.94178 14.6916 10.9998C14.6916 13.0579 13.0594 14.6902 11.0013 14.6902Z" fill="#909090"/>
<path d="M16.9262 6.42268C17.6513 6.42268 18.2391 5.83486 18.2391 5.10978C18.2391 4.38467 17.6513 3.79688 16.9262 3.79688C16.2011 3.79688 15.6133 4.38467 15.6133 5.10978C15.6133 5.83486 16.2011 6.42268 16.9262 6.42268Z" fill="#909090"/>
</svg>
