<svg width="22" height="22" viewBox="0 0 22 22" fill="none" xmlns="http://www.w3.org/2000/svg">
<path d="M14.6894 17.0546C14.5803 17.0546 14.4349 17.0182 14.3258 16.9819C11.9621 15.8182 9.23485 15.5637 6.72576 16.2182C6.2894 16.3273 5.85304 16.0728 5.74395 15.6364C5.63486 15.2 5.8894 14.7637 6.32576 14.6182C9.23485 13.8546 12.3258 14.1455 15.053 15.491C15.453 15.6728 15.6349 16.1819 15.4167 16.5819C15.2712 16.8728 14.9803 17.0546 14.6894 17.0546Z" fill="#353535"/>
<path d="M15.8175 13.1636C15.7084 13.1636 15.5993 13.1272 15.4902 13.0908C13.5993 12.2181 11.5266 11.7454 9.52658 11.7454C8.32658 11.7454 7.3084 11.8545 6.32658 12.1454C5.89022 12.2545 5.45385 11.9999 5.3084 11.5636C5.19931 11.1272 5.45385 10.6908 5.89022 10.5454C7.01749 10.2545 8.18113 10.109 9.49022 10.109C11.7448 10.109 14.0357 10.6181 16.1448 11.5999C16.5448 11.7817 16.7266 12.2908 16.5448 12.6908C16.3993 12.9817 16.1084 13.1636 15.8175 13.1636Z" fill="#353535"/>
<path d="M16.9825 9.09084C16.8734 9.09084 16.7643 9.05448 16.6189 9.01811C14.4007 7.96357 12.0007 7.45448 9.45523 7.45448C8.32795 7.45448 7.09159 7.59993 5.81886 7.85448C5.3825 7.96357 4.94614 7.67266 4.83705 7.2363C4.80068 6.76357 5.09159 6.32721 5.52796 6.25448C6.90977 5.96357 8.25523 5.81812 9.49159 5.81812C12.2552 5.81812 14.8734 6.39993 17.3461 7.52721C17.7461 7.70902 17.928 8.21811 17.7461 8.61811C17.6007 8.90902 17.3098 9.09084 16.9825 9.09084Z" fill="#353535"/>
<path d="M10.9818 22C4.9091 22 0 17.0545 0 10.9818C0 4.90909 4.9091 0 10.9818 0C17.0545 0 22 4.94545 22 10.9818C22 17.0545 17.0545 22 10.9818 22ZM10.9818 1.63636C5.81819 1.63636 1.63636 5.81818 1.63636 10.9818C1.63636 16.1454 5.81819 20.3636 10.9818 20.3636C16.1455 20.3636 20.3636 16.1454 20.3636 10.9818C20.3636 5.81818 16.1455 1.63636 10.9818 1.63636Z" fill="#353535"/>
</svg>
