<svg width="20" height="20" viewBox="0 0 20 20" fill="none" xmlns="http://www.w3.org/2000/svg">
<path d="M19.1013 17.7743C19.1884 17.8614 19.2575 17.9648 19.3046 18.0786C19.3518 18.1924 19.376 18.3144 19.376 18.4375C19.376 18.5607 19.3518 18.6827 19.3046 18.7965C19.2575 18.9103 19.1884 19.0137 19.1013 19.1008C19.0142 19.1879 18.9108 19.257 18.797 19.3042C18.6832 19.3513 18.5612 19.3756 18.438 19.3756C18.3148 19.3756 18.1929 19.3513 18.0791 19.3042C17.9653 19.257 17.8618 19.1879 17.7747 19.1008L10.0005 11.3254L2.2263 19.1008C2.05039 19.2767 1.8118 19.3756 1.56302 19.3756C1.31424 19.3756 1.07565 19.2767 0.89974 19.1008C0.723827 18.9249 0.625 18.6863 0.625 18.4375C0.625 18.1888 0.723827 17.9502 0.89974 17.7743L8.67513 10L0.89974 2.22581C0.723827 2.0499 0.625 1.81131 0.625 1.56253C0.625 1.31375 0.723827 1.07516 0.89974 0.899252C1.07565 0.723339 1.31424 0.624512 1.56302 0.624512C1.8118 0.624512 2.05039 0.723339 2.2263 0.899252L10.0005 8.67464L17.7747 0.899252C17.9507 0.723339 18.1892 0.624512 18.438 0.624512C18.6868 0.624512 18.9254 0.723339 19.1013 0.899252C19.2772 1.07516 19.376 1.31375 19.376 1.56253C19.376 1.81131 19.2772 2.0499 19.1013 2.22581L11.3259 10L19.1013 17.7743Z" fill="#1A1E21"/>
</svg>
