<svg width="37" height="35" viewBox="0 0 37 35" fill="none" xmlns="http://www.w3.org/2000/svg">
<path d="M35 31.0868V14.3249C35 14.0188 34.9254 13.7169 34.7823 13.443C34.6391 13.1692 34.4312 12.931 34.175 12.7473L19.7375 2.3944C19.3805 2.13839 18.9463 2 18.5 2C18.0537 2 17.6195 2.13839 17.2625 2.3944L2.825 12.7473C2.56885 12.931 2.36094 13.1692 2.21774 13.443C2.07455 13.7169 2 14.0188 2 14.3249V31.0868C2 31.6098 2.2173 32.1114 2.60409 32.4812C2.99089 32.8511 3.51549 33.0588 4.0625 33.0588H12.3125C12.8595 33.0588 13.3841 32.8511 13.7709 32.4812C14.1577 32.1114 14.375 31.6098 14.375 31.0868V25.1709C14.375 24.6479 14.5923 24.1463 14.9791 23.7765C15.3659 23.4066 15.8905 23.1989 16.4375 23.1989H20.5625C21.1095 23.1989 21.6341 23.4066 22.0209 23.7765C22.4077 24.1463 22.625 24.6479 22.625 25.1709V31.0868C22.625 31.6098 22.8423 32.1114 23.2291 32.4812C23.6159 32.8511 24.1405 33.0588 24.6875 33.0588H32.9375C33.4845 33.0588 34.0091 32.8511 34.3959 32.4812C34.7827 32.1114 35 31.6098 35 31.0868Z" stroke="#1A1E21" stroke-width="3" stroke-linecap="round" stroke-linejoin="round"/>
</svg>
