<svg width="37" height="35" viewBox="0 0 37 35" fill="none" xmlns="http://www.w3.org/2000/svg">
<path d="M21.8 33.0422H15.2C8.97785 33.0422 5.86595 33.0422 3.9338 31.1765C2 29.3123 2 26.31 2 20.3069V17.1231C2 11.12 2 8.1177 3.9338 6.25357C5.86595 4.38786 8.97785 4.38786 15.2 4.38786H21.8C28.0221 4.38786 31.134 4.38786 33.0662 6.25357C35 8.1177 35 11.12 35 17.1231V20.3069C35 26.31 35 29.3123 33.0662 31.1765C31.9887 32.2176 30.545 32.6776 28.4 32.8798M10.25 4.38786V2M26.75 4.38786V2M34.175 12.3474H16.4375M2 12.3474H8.39375" stroke="#1A1E21" stroke-width="3" stroke-linecap="round"/>
<path d="M28.3996 25.0826C28.3996 25.5048 28.2258 25.9097 27.9163 26.2082C27.6069 26.5068 27.1872 26.6745 26.7496 26.6745C26.312 26.6745 25.8923 26.5068 25.5829 26.2082C25.2734 25.9097 25.0996 25.5048 25.0996 25.0826C25.0996 24.6604 25.2734 24.2555 25.5829 23.9569C25.8923 23.6584 26.312 23.4907 26.7496 23.4907C27.1872 23.4907 27.6069 23.6584 27.9163 23.9569C28.2258 24.2555 28.3996 24.6604 28.3996 25.0826ZM28.3996 18.715C28.3996 19.1372 28.2258 19.5421 27.9163 19.8406C27.6069 20.1391 27.1872 20.3069 26.7496 20.3069C26.312 20.3069 25.8923 20.1391 25.5829 19.8406C25.2734 19.5421 25.0996 19.1372 25.0996 18.715C25.0996 18.2928 25.2734 17.8878 25.5829 17.5893C25.8923 17.2908 26.312 17.123 26.7496 17.123C27.1872 17.123 27.6069 17.2908 27.9163 17.5893C28.2258 17.8878 28.3996 18.2928 28.3996 18.715ZM20.1496 25.0826C20.1496 25.5048 19.9758 25.9097 19.6663 26.2082C19.3569 26.5068 18.9372 26.6745 18.4996 26.6745C18.062 26.6745 17.6423 26.5068 17.3329 26.2082C17.0234 25.9097 16.8496 25.5048 16.8496 25.0826C16.8496 24.6604 17.0234 24.2555 17.3329 23.9569C17.6423 23.6584 18.062 23.4907 18.4996 23.4907C18.9372 23.4907 19.3569 23.6584 19.6663 23.9569C19.9758 24.2555 20.1496 24.6604 20.1496 25.0826ZM20.1496 18.715C20.1496 19.1372 19.9758 19.5421 19.6663 19.8406C19.3569 20.1391 18.9372 20.3069 18.4996 20.3069C18.062 20.3069 17.6423 20.1391 17.3329 19.8406C17.0234 19.5421 16.8496 19.1372 16.8496 18.715C16.8496 18.2928 17.0234 17.8878 17.3329 17.5893C17.6423 17.2908 18.062 17.123 18.4996 17.123C18.9372 17.123 19.3569 17.2908 19.6663 17.5893C19.9758 17.8878 20.1496 18.2928 20.1496 18.715ZM11.8996 25.0826C11.8996 25.5048 11.7258 25.9097 11.4163 26.2082C11.1069 26.5068 10.6872 26.6745 10.2496 26.6745C9.812 26.6745 9.39232 26.5068 9.08288 26.2082C8.77345 25.9097 8.59961 25.5048 8.59961 25.0826C8.59961 24.6604 8.77345 24.2555 9.08288 23.9569C9.39232 23.6584 9.812 23.4907 10.2496 23.4907C10.6872 23.4907 11.1069 23.6584 11.4163 23.9569C11.7258 24.2555 11.8996 24.6604 11.8996 25.0826ZM11.8996 18.715C11.8996 19.1372 11.7258 19.5421 11.4163 19.8406C11.1069 20.1391 10.6872 20.3069 10.2496 20.3069C9.812 20.3069 9.39232 20.1391 9.08288 19.8406C8.77345 19.5421 8.59961 19.1372 8.59961 18.715C8.59961 18.2928 8.77345 17.8878 9.08288 17.5893C9.39232 17.2908 9.812 17.123 10.2496 17.123C10.6872 17.123 11.1069 17.2908 11.4163 17.5893C11.7258 17.8878 11.8996 18.2928 11.8996 18.715Z" fill="#1A1E21"/>
</svg>
