<?xml version="1.0" encoding="UTF-8"?><svg id="ARTE" xmlns="http://www.w3.org/2000/svg" viewBox="0 0 899.21 289.62"><g><g><path d="M341.03,230.95c0,4.64-3.51,9.22-9.52,9.22h-11.32v-30.26h8.26c5.22,0,8.75,3.75,8.75,7.77,0,3.27-2.27,5.44-3.4,5.44,3.4,0,7.23,3.12,7.23,7.83Zm-16.11-16.42v7.55l3.75-.02c2.35,.02,4.07-1.6,4.07-3.75s-1.88-3.77-4.02-3.77h-3.81Zm11.47,16.11c0-2.29-1.95-4.39-5.39-4.39l-6.08,.02v9.27h6.16c2.72,0,5.31-1.97,5.31-4.9Z"/><path d="M393.68,235.57h-14.32l-2.07,4.6h-5.14l14.23-30.88h.28l14.23,30.88h-5.14l-2.07-4.6Zm-1.84-4.07l-5.31-11.83-5.33,11.83h10.64Z"/><path d="M451.28,240.17l-8.15-11.71h-3.72v11.71h-4.75l-.02-30.26h9.4c5.63,0,10.25,4.34,10.25,9.72,0,3.9-2.52,7.3-5.99,8.43l8.8,12.11h-5.84Zm-7.11-15.65c2.85,.02,5.24-2.29,5.24-4.99s-2.42-4.9-5.24-4.9h-4.77v9.89h4.77Z"/><path d="M511.53,230.95c0,4.64-3.51,9.22-9.52,9.22h-11.32v-30.26h8.26c5.22,0,8.75,3.75,8.75,7.77,0,3.27-2.27,5.44-3.4,5.44,3.4,0,7.23,3.12,7.23,7.83Zm-16.11-16.42v7.55l3.75-.02c2.35,.02,4.07-1.6,4.07-3.75s-1.88-3.77-4.02-3.77h-3.81Zm11.47,16.11c0-2.29-1.95-4.39-5.39-4.39l-6.08,.02v9.27h6.16c2.72,0,5.31-1.97,5.31-4.9Z"/><path d="M550.45,214.59v7.75h11.45v4.73h-11.45v8.37h13.27v4.73h-18.02v-30.26h18.02v4.67h-13.27Z"/><path d="M618.1,235.57h-14.32l-2.07,4.6h-5.14l14.23-30.88h.28l14.23,30.88h-5.14l-2.07-4.6Zm-1.84-4.07l-5.31-11.83-5.33,11.83h10.64Z"/><path d="M675.69,240.17l-8.15-11.71h-3.72v11.71h-4.75l-.02-30.26h9.4c5.63,0,10.25,4.34,10.25,9.72,0,3.9-2.52,7.3-5.99,8.43l8.8,12.11h-5.84Zm-7.11-15.65c2.85,.02,5.24-2.29,5.24-4.99s-2.42-4.9-5.24-4.9h-4.77v9.89h4.77Z"/><path d="M715.11,209.91h4.75v30.26h-4.75v-30.26Z"/><path d="M775.12,235.57h-14.32l-2.07,4.6h-5.14l14.23-30.88h.28l14.23,30.88h-5.14l-2.07-4.6Zm-1.84-4.07l-5.31-11.83-5.33,11.83h10.64Z"/></g><g><path d="M341.97,82.92v99.95h-.73l-62.68-65.48v63.9h-15.38V81.46h.79l62.56,65.36v-63.9h15.44Z"/><path d="M368.71,132.29c0-27.97,22.74-50.83,50.65-50.83s50.71,22.86,50.71,50.83-22.86,50.46-50.77,50.46-50.59-22.74-50.59-50.46Zm85.79-.12c0-19.39-15.87-35.2-35.2-35.2s-35.08,15.81-35.08,35.2,15.75,35.02,35.08,35.02,35.2-15.75,35.2-35.02Z"/><path d="M550.61,181.17l-26.39-37.94h-12.04v37.94h-15.38l-.06-98.01h30.46c18.24,0,33.2,14.04,33.2,31.49,0,12.65-8.15,23.65-19.4,27.3l28.51,39.22h-18.91Zm-23.04-50.71c9.24,.06,16.96-7.42,16.96-16.17s-7.84-15.87-16.96-15.87h-15.44v32.04h15.44Z"/><path d="M670.86,132.29c0,30.1-19.4,48.88-50.52,48.88h-27.91V83.16h27.91c31.13-.06,50.52,18.79,50.52,49.13Zm-15.56-.06c0-20.79-13.5-33.8-35.02-33.8h-12.52v67.43h12.71c21.4,0,34.84-12.95,34.84-33.62Z"/><path d="M696.63,144.03v-60.86h15.44v60.8c0,13.56,9.55,23.47,21.52,23.47s21.64-9.91,21.64-23.47v-60.8h15.5v60.86c0,22.5-16.23,38.97-37.09,38.97s-37.03-16.48-37.03-38.97Z"/><path d="M795.54,163.97l12.16-8.69c4.38,7.66,12.52,12.04,21.95,12.04,11,0,19.33-5.29,19.33-12.77,0-9.06-12.89-14.53-24.32-19.46-11.49-5.11-24.26-11.07-24.26-26.45s13.92-27.24,31.56-27.24c13.98,0,24.44,6.75,28.45,17.51l-11.43,7.9c-3.04-6.63-9.79-10.34-16.9-10.34-9,0-16.17,5.59-16.17,12.52,0,7.66,9.06,10.4,20.98,15.5,15.5,6.81,27.54,14.29,27.54,29.73,0,17.39-15.08,28.58-34.96,28.58-16.11,0-28.33-7.54-33.93-18.85Z"/></g></g><g><path d="M200.88,205.92c2.46-1.02,4.07-3.43,4.07-6.09V110.61c0-2.67-1.61-5.07-4.07-6.09-2.47-1.02-5.3-.46-7.19,1.43l-32.02,32.03c-2.58,2.58-2.58,6.75,0,9.33,2.58,2.58,6.75,2.58,9.33,0l20.76-20.76v57.37L46.04,38.18c-1.89-1.89-4.72-2.45-7.19-1.43-2.46,1.02-4.07,3.43-4.07,6.09V246.77c0,3.64,2.95,6.6,6.6,6.6s6.6-2.95,6.6-6.6V58.77L193.69,204.49c1.89,1.89,4.72,2.45,7.19,1.43Z"/><path d="M218.68,36.25c-3.64,0-6.6,2.95-6.6,6.6V230.85L66.37,85.13c-1.89-1.89-4.72-2.45-7.19-1.43-2.46,1.02-4.07,3.43-4.07,6.09v89.22c0,2.67,1.61,5.07,4.07,6.09,2.47,1.02,5.3,.46,7.19-1.43l32.02-32.03c2.58-2.58,2.58-6.75,0-9.33-2.58-2.58-6.75-2.58-9.33,0l-20.76,20.76v-57.37L214.01,251.44c1.89,1.89,4.72,2.45,7.19,1.43,2.46-1.02,4.07-3.43,4.07-6.09V42.85c0-3.64-2.95-6.6-6.6-6.6Z"/></g></svg>